<svg width="24" height="26" viewBox="0 0 24 26" fill="none" xmlns="http://www.w3.org/2000/svg">
<path d="M1 3.66728C0.999861 3.1981 1.12352 2.73719 1.35849 2.33109C1.59346 1.92499 1.93142 1.58807 2.33825 1.35436C2.74507 1.12065 3.20637 0.998423 3.67554 1.00002C4.14472 1.00161 4.60517 1.12697 5.0104 1.36343L21.0053 10.6935C21.409 10.9277 21.7441 11.2638 21.9772 11.6681C22.2103 12.0724 22.3332 12.5308 22.3336 12.9975C22.334 13.4642 22.2119 13.9228 21.9795 14.3276C21.7471 14.7323 21.4126 15.0689 21.0093 15.3038L5.0104 24.6366C4.60517 24.873 4.14472 24.9984 3.67554 25C3.20637 25.0016 2.74507 24.8793 2.33825 24.6456C1.93142 24.4119 1.59346 24.075 1.35849 23.6689C1.12352 23.2628 0.999861 22.8019 1 22.3327V3.66728Z" stroke="#F8F8F8" stroke-width="2" stroke-linecap="round" stroke-linejoin="round"/>
</svg>
